<svg id="Layer_1" data-name="Layer 1" xmlns="http://www.w3.org/2000/svg" viewBox="0 0 306.22 151.56"><title>Figure_1</title><line x1="225.52" y1="104.72" x2="225.52" y2="28.28" style="fill:none;stroke:#58595b;stroke-miterlimit:10;stroke-width:0.5px"/><line x1="225.52" y1="124.94" x2="225.52" y2="124.44" style="fill:none;stroke:#58595b;stroke-miterlimit:10;stroke-width:0.5px"/><line x1="225.52" y1="123.49" x2="225.52" y2="108.87" style="fill:none;stroke:#58595b;stroke-miterlimit:10;stroke-width:0.5px;stroke-dasharray:0.943203866481781,0.943203866481781"/><line x1="225.52" y1="108.4" x2="225.52" y2="107.9" style="fill:none;stroke:#58595b;stroke-miterlimit:10;stroke-width:0.5px"/><path d="M284.62,462.4a15.25,15.25,0,0,0,2.38,4.28l-2.38-.86-2.38.86A14.77,14.77,0,0,0,284.62,462.4Z" transform="translate(-59.1 -357.52)" style="fill:#58595b"/><rect x="197.68" y="52.37" width="55.69" height="28.26" style="fill:#fff"/><line x1="119.23" y1="104.72" x2="119.23" y2="28.28" style="fill:none;stroke:#58595b;stroke-miterlimit:10;stroke-width:0.5px"/><rect x="98.63" y="55.79" width="42.52" height="17.74" style="fill:#fff"/><path d="M312.29,444.22c0-5.35,11.76-9.69,26.26-9.69a56,56,0,0,1,18.58,2.84c4.92,1.82,7.69,4.28,7.69,6.85v32.27c0,5.35-11.76,9.69-26.27,9.69s-26.26-4.34-26.26-9.69Z" transform="translate(-59.1 -357.52)" style="fill:none;stroke:#be1e2d;stroke-miterlimit:10"/><path d="M364.82,444.22c0,5.34-11.76,9.68-26.27,9.68s-26.26-4.34-26.26-9.68" transform="translate(-59.1 -357.52)" style="fill:none;stroke:#be1e2d;stroke-miterlimit:10"/><path d="M312.29,367.7c0-5.34,11.76-9.68,26.26-9.68a56,56,0,0,1,18.58,2.84c4.92,1.82,7.69,4.28,7.69,6.84V400c0,5.35-11.76,9.69-26.27,9.69s-26.26-4.34-26.26-9.69Z" transform="translate(-59.1 -357.52)" style="fill:none;stroke:#1b75bc;stroke-miterlimit:10"/><path d="M364.82,367.7c0,5.35-11.76,9.69-26.27,9.69s-26.26-4.34-26.26-9.69" transform="translate(-59.1 -357.52)" style="fill:none;stroke:#1b75bc;stroke-miterlimit:10"/><path d="M205.76,368c0-5.34,11.76-9.68,26.27-9.68a56.27,56.27,0,0,1,18.57,2.83c4.93,1.82,7.7,4.28,7.7,6.85v32.28c0,5.34-11.76,9.68-26.27,9.68s-26.27-4.34-26.27-9.68Z" transform="translate(-59.1 -357.52)" style="fill:none;stroke:#1b75bc;stroke-miterlimit:10"/><path d="M258.3,368c0,5.35-11.76,9.68-26.27,9.68s-26.27-4.33-26.27-9.68" transform="translate(-59.1 -357.52)" style="fill:none;stroke:#1b75bc;stroke-miterlimit:10"/><path d="M86.58,368c0-5.34,11.76-9.68,26.26-9.68a56.22,56.22,0,0,1,18.57,2.83c4.93,1.82,7.7,4.28,7.7,6.85v32.28c0,5.34-11.76,9.68-26.27,9.68s-26.26-4.34-26.26-9.68Z" transform="translate(-59.1 -357.52)" style="fill:none;stroke:#1b75bc;stroke-miterlimit:10"/><path d="M139.11,368c0,5.35-11.76,9.68-26.27,9.68S86.58,373.3,86.58,368" transform="translate(-59.1 -357.52)" style="fill:none;stroke:#1b75bc;stroke-miterlimit:10"/><path d="M205.76,444.46c0-5.34,11.76-9.68,26.27-9.68a56.27,56.27,0,0,1,18.57,2.83c4.93,1.82,7.7,4.28,7.7,6.85v32.28c0,5.35-11.76,9.68-26.27,9.68s-26.27-4.33-26.27-9.68Z" transform="translate(-59.1 -357.52)" style="fill:none;stroke:#be1e2d;stroke-miterlimit:10"/><path d="M258.3,444.46c0,5.35-11.76,9.69-26.27,9.69s-26.27-4.34-26.27-9.69" transform="translate(-59.1 -357.52)" style="fill:none;stroke:#be1e2d;stroke-miterlimit:10"/><text transform="translate(45.38 28.28)" style="isolation:isolate;font-size:7.003109931945801px;font-family:ArialMT, Arial">NCBI<tspan x="-7.59" y="8.4" style="letter-spacing:-0.11086034562423153em">T</tspan><tspan x="-4.09" y="8.4">axonomy</tspan><tspan x="-6.62" y="16.81">Database</tspan></text><path d="M205.27,391.46" transform="translate(-59.1 -357.52)" style="fill:none;stroke:#000;stroke-linecap:square;stroke-miterlimit:10;stroke-width:0.5px"/><path d="M205.27,404.37" transform="translate(-59.1 -357.52)" style="fill:none;stroke:#000;stroke-linecap:square;stroke-miterlimit:10;stroke-width:0.5px"/><path d="M80.35,443.72v-8.85h71v8.85" transform="translate(-59.1 -357.52)" style="fill:none;stroke:#000;stroke-miterlimit:10;stroke-width:0.5px"/><path d="M80.35,443.72v37h71v-37" transform="translate(-59.1 -357.52)" style="fill:none;stroke:#000;stroke-miterlimit:10;stroke-width:0.5px"/><path d="M80.35,443.46h71" transform="translate(-59.1 -357.52)" style="fill:none;stroke:#000;stroke-miterlimit:10;stroke-width:0.5px"/><path d="M107.41,443.72v37" transform="translate(-59.1 -357.52)" style="fill:none;stroke:#000;stroke-miterlimit:10;stroke-width:0.5px"/><text transform="translate(47.08 83.97)" style="isolation:isolate;font-size:7.003109931945801px;font-family:Arial-BoldMT, Arial;font-weight:700"><tspan style="letter-spacing:-0.07425551452189093em">T</tspan><tspan x="3.76" y="0">able</tspan></text><path d="M151.38,454h-71" transform="translate(-59.1 -357.52)" style="fill:none;stroke:#000;stroke-linecap:square;stroke-miterlimit:10;stroke-width:0.5px"/><text transform="translate(25 93.98)" style="isolation:isolate;font-size:7.003109931945801px;font-family:Arial-BoldMT, Arial;font-weight:700"><tspan style="letter-spacing:-0.07425551452189093em">T</tspan><tspan x="3.76" y="0">axID</tspan></text><text transform="translate(49.69 93.98)" style="isolation:isolate;font-size:7.003109931945801px;font-family:Arial-BoldMT, Arial;font-weight:700"><tspan style="letter-spacing:-0.07425551452189093em">T</tspan><tspan x="3.76" y="0">axon name</tspan></text><path d="M106.18,456.63" transform="translate(-59.1 -357.52)" style="fill:none;stroke:#000;stroke-linecap:square;stroke-miterlimit:10;stroke-width:0.5px"/><text x="-59.1" y="-357.52"/><text transform="translate(23.09 103.31)" style="isolation:isolate;font-size:7.003109931945801px;font-family:ArialMT, Arial"><tspan style="letter-spacing:-0.11086034562423153em">T</tspan><tspan x="3.5" y="0">axID 1</tspan></text><path d="M106.18,469.55" transform="translate(-59.1 -357.52)" style="fill:none;stroke:#000;stroke-linecap:square;stroke-miterlimit:10;stroke-width:0.5px"/><text transform="translate(57.92 103.31)" style="isolation:isolate;font-size:7.003109931945801px;font-family:ArialMT, Arial"><tspan style="letter-spacing:-0.11086034562423153em">T</tspan><tspan x="3.5" y="0">axon 1</tspan></text><text transform="translate(23.09 111.06)" style="isolation:isolate;font-size:7.003109931945801px;font-family:ArialMT, Arial"><tspan style="letter-spacing:-0.11086034562423153em">T</tspan><tspan x="3.5" y="0">axID 2</tspan></text><path d="M106.18,482.46" transform="translate(-59.1 -357.52)" style="fill:none;stroke:#000;stroke-linecap:square;stroke-miterlimit:10;stroke-width:0.5px"/><text transform="translate(57.92 111.06)" style="isolation:isolate;font-size:7.003109931945801px;font-family:ArialMT, Arial"><tspan style="letter-spacing:-0.11086034562423153em">T</tspan><tspan x="3.5" y="0">axon 2</tspan></text><text transform="translate(23.09 118.8)" style="isolation:isolate;font-size:7.003109931945801px;font-family:ArialMT, Arial"><tspan style="letter-spacing:-0.11086034562423153em">T</tspan><tspan x="3.5" y="0">axID n</tspan></text><text transform="translate(57.92 118.8)" style="isolation:isolate;font-size:7.003109931945801px;font-family:ArialMT, Arial"><tspan style="letter-spacing:-0.11086034562423153em">T</tspan><tspan x="3.5" y="0">axon n</tspan></text><g style="isolation:isolate"><path d="M224.2,387.08v-5h.68l2.63,3.94v-3.94h.64v5h-.68l-2.64-3.94v3.94Z" transform="translate(-59.1 -357.52)"/><path d="M232.84,385.32l.66.17a2.22,2.22,0,0,1-.75,1.24,2,2,0,0,1-1.32.43,2.39,2.39,0,0,1-1.32-.33,2,2,0,0,1-.77-.95,3.39,3.39,0,0,1-.27-1.35,2.93,2.93,0,0,1,.3-1.36,2,2,0,0,1,.85-.89,2.51,2.51,0,0,1,1.22-.3,1.93,1.93,0,0,1,2,1.46l-.66.15a1.48,1.48,0,0,0-.5-.79,1.33,1.33,0,0,0-.84-.25,1.65,1.65,0,0,0-1,.27,1.54,1.54,0,0,0-.55.75,3.12,3.12,0,0,0-.16,1,3.16,3.16,0,0,0,.19,1.12,1.42,1.42,0,0,0,.58.71,1.61,1.61,0,0,0,.85.24,1.43,1.43,0,0,0,.95-.33A1.66,1.66,0,0,0,232.84,385.32Z" transform="translate(-59.1 -357.52)"/><path d="M234.29,387.08v-5h1.88a2.3,2.3,0,0,1,.92.16,1.15,1.15,0,0,1,.55.47,1.23,1.23,0,0,1,.19.66,1.09,1.09,0,0,1-.17.6,1.27,1.27,0,0,1-.53.46,1.26,1.26,0,0,1,.7.46,1.16,1.16,0,0,1,.25.76,1.44,1.44,0,0,1-.15.65,1.27,1.27,0,0,1-.37.47,1.39,1.39,0,0,1-.55.24,3.12,3.12,0,0,1-.81.09Zm.67-2.91H236a2.36,2.36,0,0,0,.63-.06.66.66,0,0,0,.38-.25.67.67,0,0,0,.13-.43.78.78,0,0,0-.12-.44.56.56,0,0,0-.34-.26,2.71,2.71,0,0,0-.76-.07h-1Zm0,2.32h1.24a2.2,2.2,0,0,0,.45,0,1,1,0,0,0,.39-.13.85.85,0,0,0,.25-.28.84.84,0,0,0,.1-.42.88.88,0,0,0-.14-.49.74.74,0,0,0-.4-.29,2.35,2.35,0,0,0-.74-.09H235Z" transform="translate(-59.1 -357.52)"/><path d="M239.1,387.08v-5h.67v5Z" transform="translate(-59.1 -357.52)"/><path d="M212.17,395.48l1.92-5h.72l2.05,5h-.76l-.58-1.52h-2.1l-.55,1.52Zm1.44-2.06h1.7l-.52-1.38c-.16-.43-.28-.77-.36-1a5.39,5.39,0,0,1-.27.95Z" transform="translate(-59.1 -357.52)"/><path d="M219.68,394.15l.61.08a1.61,1.61,0,0,1-.51,1,1.48,1.48,0,0,1-1,.35,1.56,1.56,0,0,1-1.19-.48,2,2,0,0,1-.46-1.4,2.52,2.52,0,0,1,.2-1,1.41,1.41,0,0,1,.59-.66,1.73,1.73,0,0,1,.87-.22,1.54,1.54,0,0,1,1,.3,1.36,1.36,0,0,1,.48.85l-.6.09a1,1,0,0,0-.3-.55.82.82,0,0,0-.53-.19,1,1,0,0,0-.75.34,1.53,1.53,0,0,0-.3,1.05,1.63,1.63,0,0,0,.29,1.07.9.9,0,0,0,.73.33.89.89,0,0,0,.6-.22A1.11,1.11,0,0,0,219.68,394.15Z" transform="translate(-59.1 -357.52)"/><path d="M223.18,394.15l.61.08a1.61,1.61,0,0,1-.51,1,1.45,1.45,0,0,1-1,.35,1.57,1.57,0,0,1-1.2-.48,2,2,0,0,1-.46-1.4,2.52,2.52,0,0,1,.2-1,1.41,1.41,0,0,1,.59-.66,1.76,1.76,0,0,1,.87-.22,1.52,1.52,0,0,1,1,.3,1.36,1.36,0,0,1,.48.85l-.6.09a1,1,0,0,0-.3-.55.82.82,0,0,0-.53-.19,1,1,0,0,0-.75.34,1.53,1.53,0,0,0-.29,1.05,1.63,1.63,0,0,0,.28,1.07.9.9,0,0,0,.73.33.89.89,0,0,0,.6-.22A1.06,1.06,0,0,0,223.18,394.15Z" transform="translate(-59.1 -357.52)"/><path d="M226.8,394.31l.64.08a1.6,1.6,0,0,1-.56.87,1.71,1.71,0,0,1-1,.3,1.64,1.64,0,0,1-1.26-.49,1.85,1.85,0,0,1-.47-1.37,2.05,2.05,0,0,1,.47-1.43,1.62,1.62,0,0,1,1.22-.5,1.53,1.53,0,0,1,1.19.49,2,2,0,0,1,.47,1.4,1,1,0,0,1,0,.16h-2.71a1.45,1.45,0,0,0,.34.92,1,1,0,0,0,.76.32.93.93,0,0,0,.58-.18A1.17,1.17,0,0,0,226.8,394.31Zm-2-1h2a1.22,1.22,0,0,0-.24-.69.93.93,0,0,0-.76-.36,1,1,0,0,0-.71.29A1.13,1.13,0,0,0,224.78,393.32Z" transform="translate(-59.1 -357.52)"/><path d="M228,394.4l.61-.1a.81.81,0,0,0,.29.56,1,1,0,0,0,.65.2,1,1,0,0,0,.63-.17.52.52,0,0,0,.21-.41.37.37,0,0,0-.19-.33,3.11,3.11,0,0,0-.62-.21,5.42,5.42,0,0,1-.94-.29.92.92,0,0,1-.4-.35.93.93,0,0,1-.14-.49.83.83,0,0,1,.12-.44.92.92,0,0,1,.3-.35,1.18,1.18,0,0,1,.39-.18,1.83,1.83,0,0,1,.53-.07,2.11,2.11,0,0,1,.75.12.93.93,0,0,1,.48.34,1.31,1.31,0,0,1,.21.56l-.6.08a.69.69,0,0,0-.24-.44.88.88,0,0,0-.55-.16,1,1,0,0,0-.61.14.43.43,0,0,0-.18.33.36.36,0,0,0,.07.22.63.63,0,0,0,.24.16,4.68,4.68,0,0,0,.54.16,7.44,7.44,0,0,1,.92.29.91.91,0,0,1,.4.32.9.9,0,0,1,.15.53,1,1,0,0,1-.18.57,1.11,1.11,0,0,1-.52.43,2.07,2.07,0,0,1-.77.14,1.65,1.65,0,0,1-1.07-.29A1.39,1.39,0,0,1,228,394.4Z" transform="translate(-59.1 -357.52)"/><path d="M231.46,394.4l.61-.1a.85.85,0,0,0,.29.56,1,1,0,0,0,.65.2,1,1,0,0,0,.63-.17.52.52,0,0,0,.21-.41.38.38,0,0,0-.18-.33,3.6,3.6,0,0,0-.63-.21,5.42,5.42,0,0,1-.94-.29.89.89,0,0,1-.53-.84.82.82,0,0,1,.11-.44.92.92,0,0,1,.3-.35,1.42,1.42,0,0,1,.39-.18,1.83,1.83,0,0,1,.53-.07,2.11,2.11,0,0,1,.75.12.93.93,0,0,1,.48.34,1.31,1.31,0,0,1,.21.56l-.6.08a.69.69,0,0,0-.24-.44.88.88,0,0,0-.55-.16,1.05,1.05,0,0,0-.61.14.43.43,0,0,0-.18.33.37.37,0,0,0,.08.22.59.59,0,0,0,.23.16,4.46,4.46,0,0,0,.55.16,7.74,7.74,0,0,1,.91.29.91.91,0,0,1,.4.32.9.9,0,0,1,.15.53,1,1,0,0,1-.18.57,1.11,1.11,0,0,1-.52.43,2,2,0,0,1-.76.14,1.66,1.66,0,0,1-1.08-.29A1.39,1.39,0,0,1,231.46,394.4Z" transform="translate(-59.1 -357.52)"/><path d="M235.21,391.18v-.71h.62v.71Zm0,4.3v-3.63h.62v3.63Z" transform="translate(-59.1 -357.52)"/><path d="M236.54,393.67a1.9,1.9,0,0,1,.56-1.5,1.67,1.67,0,0,1,1.14-.4,1.63,1.63,0,0,1,1.23.49,1.9,1.9,0,0,1,.47,1.35,2.44,2.44,0,0,1-.21,1.11,1.46,1.46,0,0,1-.61.62,1.77,1.77,0,0,1-.88.22,1.63,1.63,0,0,1-1.23-.48A1.94,1.94,0,0,1,236.54,393.67Zm.63,0a1.5,1.5,0,0,0,.31,1,1,1,0,0,0,1.52,0,1.54,1.54,0,0,0,.31-1.06,1.47,1.47,0,0,0-.31-1,1,1,0,0,0-1.52,0A1.51,1.51,0,0,0,237.17,393.67Z" transform="translate(-59.1 -357.52)"/><path d="M240.66,395.48v-3.63h.56v.52a1.29,1.29,0,0,1,1.15-.6,1.54,1.54,0,0,1,.61.12.88.88,0,0,1,.41.31,1.22,1.22,0,0,1,.19.45,4,4,0,0,1,0,.6v2.23H243v-2.21a1.86,1.86,0,0,0-.07-.56.68.68,0,0,0-.26-.3.83.83,0,0,0-.43-.11,1,1,0,0,0-.68.25,1.24,1.24,0,0,0-.28.95v2Z" transform="translate(-59.1 -357.52)"/><path d="M247.85,394.93l.09.55a2.9,2.9,0,0,1-.47,0,1.06,1.06,0,0,1-.52-.11.61.61,0,0,1-.26-.27,2.3,2.3,0,0,1-.07-.73v-2.09h-.46v-.48h.46V391l.61-.37v1.27h.62v.48h-.62v2.12a1.15,1.15,0,0,0,0,.34.25.25,0,0,0,.11.12.41.41,0,0,0,.21,0Z" transform="translate(-59.1 -357.52)"/><path d="M248.22,393.67a1.9,1.9,0,0,1,.56-1.5,1.67,1.67,0,0,1,1.14-.4,1.63,1.63,0,0,1,1.23.49,1.9,1.9,0,0,1,.47,1.35,2.44,2.44,0,0,1-.21,1.11,1.46,1.46,0,0,1-.61.62,1.77,1.77,0,0,1-.88.22,1.63,1.63,0,0,1-1.23-.48A2,2,0,0,1,248.22,393.67Zm.63,0a1.5,1.5,0,0,0,.31,1,1,1,0,0,0,1.52,0,1.54,1.54,0,0,0,.31-1.06,1.47,1.47,0,0,0-.31-1,.93.93,0,0,0-.76-.35,1,1,0,0,0-.76.34A1.51,1.51,0,0,0,248.85,393.67Z" transform="translate(-59.1 -357.52)"/><path d="M213.41,403.89v-4.43h-1.65v-.59h4v.59h-1.65v4.43Z" transform="translate(-59.1 -357.52)"/><path d="M217.93,403.44a2.43,2.43,0,0,1-.66.41,1.91,1.91,0,0,1-.68.12,1.35,1.35,0,0,1-.92-.29,1,1,0,0,1-.32-.75,1,1,0,0,1,.12-.49,1,1,0,0,1,.32-.35,1.35,1.35,0,0,1,.44-.2,3.25,3.25,0,0,1,.55-.1,6,6,0,0,0,1.1-.21v-.16a.7.7,0,0,0-.17-.53,1,1,0,0,0-.7-.21,1.08,1.08,0,0,0-.64.15,1,1,0,0,0-.31.54l-.6-.08a1.31,1.31,0,0,1,.27-.62,1.16,1.16,0,0,1,.54-.37,2.33,2.33,0,0,1,.83-.13,2.2,2.2,0,0,1,.75.11,1,1,0,0,1,.43.28,1,1,0,0,1,.19.42,3.43,3.43,0,0,1,0,.56v.82a7.93,7.93,0,0,0,0,1.09,1.46,1.46,0,0,0,.16.44h-.65A1.48,1.48,0,0,1,217.93,403.44Zm-.05-1.38a5,5,0,0,1-1,.24,1.81,1.81,0,0,0-.53.12.5.5,0,0,0-.25.2.57.57,0,0,0-.08.29.52.52,0,0,0,.18.41.82.82,0,0,0,.55.17,1.28,1.28,0,0,0,.63-.16,1,1,0,0,0,.41-.43,1.37,1.37,0,0,0,.1-.61Z" transform="translate(-59.1 -357.52)"/><path d="M219,403.89l1.33-1.89-1.23-1.75h.77l.56.86a4.61,4.61,0,0,1,.25.4l.28-.4.61-.86h.74L221.09,402l1.35,1.93h-.75l-.75-1.13-.2-.31-1,1.44Z" transform="translate(-59.1 -357.52)"/><path d="M222.73,402.07a1.84,1.84,0,0,1,.56-1.49,1.68,1.68,0,0,1,1.14-.41,1.63,1.63,0,0,1,1.22.49,1.87,1.87,0,0,1,.48,1.36,2.39,2.39,0,0,1-.21,1.1,1.48,1.48,0,0,1-.61.63,1.88,1.88,0,0,1-.88.22,1.64,1.64,0,0,1-1.23-.49A1.94,1.94,0,0,1,222.73,402.07Zm.63,0a1.54,1.54,0,0,0,.3,1,1,1,0,0,0,.77.35.93.93,0,0,0,.76-.35,1.53,1.53,0,0,0,.31-1.06,1.47,1.47,0,0,0-.31-1,1,1,0,0,0-.76-.35,1,1,0,0,0-.77.35A1.54,1.54,0,0,0,223.36,402.07Z" transform="translate(-59.1 -357.52)"/><path d="M226.85,403.89v-3.64h.55v.52a1.32,1.32,0,0,1,1.16-.6,1.46,1.46,0,0,1,.6.12,1,1,0,0,1,.42.31,1.3,1.3,0,0,1,.19.45,4.14,4.14,0,0,1,0,.6v2.24h-.61v-2.21a1.65,1.65,0,0,0-.08-.57.54.54,0,0,0-.25-.29.77.77,0,0,0-.43-.11,1,1,0,0,0-.68.25,1.21,1.21,0,0,0-.28.94v2Z" transform="translate(-59.1 -357.52)"/><path d="M230.52,402.07a1.84,1.84,0,0,1,.56-1.49,1.68,1.68,0,0,1,1.14-.41,1.63,1.63,0,0,1,1.22.49,1.87,1.87,0,0,1,.48,1.36,2.39,2.39,0,0,1-.21,1.1,1.54,1.54,0,0,1-.61.63,1.88,1.88,0,0,1-.88.22,1.64,1.64,0,0,1-1.23-.49A1.94,1.94,0,0,1,230.52,402.07Zm.63,0a1.54,1.54,0,0,0,.3,1,1,1,0,0,0,.77.35,1,1,0,0,0,.76-.35,1.9,1.9,0,0,0,0-2.08,1,1,0,0,0-.76-.35,1,1,0,0,0-.77.35A1.54,1.54,0,0,0,231.15,402.07Z" transform="translate(-59.1 -357.52)"/><path d="M234.64,403.89v-3.64h.55v.51a1.36,1.36,0,0,1,.46-.43,1.32,1.32,0,0,1,.64-.16,1.2,1.2,0,0,1,.66.17.87.87,0,0,1,.37.47,1.28,1.28,0,0,1,1.12-.64,1.1,1.1,0,0,1,.83.3,1.3,1.3,0,0,1,.29.92v2.5H239V401.6a1.62,1.62,0,0,0-.06-.53.52.52,0,0,0-.22-.27.72.72,0,0,0-.37-.09.85.85,0,0,0-.63.25,1.12,1.12,0,0,0-.26.82v2.11h-.61v-2.36a1,1,0,0,0-.15-.62.56.56,0,0,0-.49-.2.92.92,0,0,0-.49.13.85.85,0,0,0-.32.4,2.49,2.49,0,0,0-.09.76v1.89Z" transform="translate(-59.1 -357.52)"/><path d="M240.45,405.28l-.07-.57a1.63,1.63,0,0,0,.35.05.62.62,0,0,0,.33-.07.52.52,0,0,0,.2-.19,2.87,2.87,0,0,0,.19-.46l.05-.15-1.37-3.64h.66l.75,2.11a8.3,8.3,0,0,1,.27.84,7.93,7.93,0,0,1,.25-.83l.78-2.12h.61l-1.38,3.7a8.05,8.05,0,0,1-.34.82,1.33,1.33,0,0,1-.38.45.93.93,0,0,1-.51.14A1.23,1.23,0,0,1,240.45,405.28Z" transform="translate(-59.1 -357.52)"/><path d="M246.11,403.89v-5h.67v5Z" transform="translate(-59.1 -357.52)"/><path d="M248,403.89v-5h1.72a4.74,4.74,0,0,1,.89.07,1.77,1.77,0,0,1,.74.36,2.1,2.1,0,0,1,.59.86,3.79,3.79,0,0,1,.07,2.2,2.36,2.36,0,0,1-.35.73,1.65,1.65,0,0,1-.45.46,2,2,0,0,1-.6.25,3.23,3.23,0,0,1-.81.09Zm.66-.6h1.07a2.69,2.69,0,0,0,.78-.09,1.16,1.16,0,0,0,.45-.26,1.61,1.61,0,0,0,.36-.63,3.06,3.06,0,0,0,.14-1,2.36,2.36,0,0,0-.26-1.21,1.25,1.25,0,0,0-.63-.56,2.51,2.51,0,0,0-.86-.11h-1Z" transform="translate(-59.1 -357.52)"/></g><text transform="translate(271.09 29.56)" style="isolation:isolate;font-size:7.003109931945801px;font-family:ArialMT, Arial">NCBI<tspan x="-7.01" y="8.4">prot./nucl.</tspan><tspan x="-2.27" y="16.81" style="letter-spacing:-0.05508155537304586em">F</tspan><tspan x="1.62" y="16.81">AS</tspan><tspan x="10.96" y="16.81" style="letter-spacing:-0.07418579103407695em">T</tspan><tspan x="14.72" y="16.81" style="letter-spacing:-0.05508155537304586em">A</tspan></text><text transform="translate(257.14 106.02)" style="isolation:isolate;font-size:7.003109931945801px;font-family:ArialMT, Arial"><tspan style="letter-spacing:-0.11072089864860356em">T</tspan><tspan x="3.5" y="0">arget</tspan><tspan x="19.46" y="0" style="letter-spacing:-0.01798865985600738em"> </tspan><tspan x="21.28" y="0" style="letter-spacing:-0.11086034562423153em">T</tspan><tspan x="24.78" y="0">axIDs </tspan><tspan x="6.94" y="8.4">prot./nucl.</tspan><tspan x="11.68" y="16.81" style="letter-spacing:-0.05508155537304586em">F</tspan><tspan x="15.57" y="16.81">AS</tspan><tspan x="24.91" y="16.81" style="letter-spacing:-0.07418579103407695em">T</tspan><tspan x="28.67" y="16.81" style="letter-spacing:-0.05508155537304586em">A</tspan></text><text transform="translate(107.12 62.36)" style="isolation:isolate;font-size:7.003109931945801px;font-family:ArialMT, Arial">Filter for<tspan x="-7.72" y="8.4">target</tspan><tspan x="10.18" y="8.4" style="letter-spacing:-0.01805838334382136em"> </tspan><tspan x="12" y="8.4" style="letter-spacing:-0.11086034562423153em">T</tspan><tspan x="15.5" y="8.4">axIDs</tspan></text><text transform="translate(198.47 60.06)" style="isolation:isolate;font-size:7.003109931945801px;font-family:ArialMT, Arial">Parse sequences<tspan x="3.51" y="8.4">&amp; filter headers</tspan><tspan x="5.06" y="16.81">by accessions</tspan></text><text transform="translate(151.59 104.88)" style="isolation:isolate;font-size:7.003109931945801px;font-family:ArialMT, Arial"><tspan style="letter-spacing:-0.11086034562423153em">T</tspan><tspan x="3.5" y="0">arget</tspan><tspan x="19.46" y="0" style="letter-spacing:-0.018128106831635345em"> </tspan><tspan x="21.28" y="0" style="letter-spacing:-0.11086034562423153em">T</tspan><tspan x="24.78" y="0">axIDs</tspan><tspan x="0.52" y="8.4">Accession to </tspan><tspan x="0.91" y="16.81" style="letter-spacing:-0.11086034562423153em">T</tspan><tspan x="4.41" y="16.81">axonomy ID</tspan></text><line x1="53.74" y1="52.39" x2="53.74" y2="73.75" style="fill:none;stroke:#58595b;stroke-miterlimit:10;stroke-width:0.5px"/><path d="M112.84,434.29a15.14,15.14,0,0,0-2.38-4.28l2.38.86,2.38-.86A15.39,15.39,0,0,0,112.84,434.29Z" transform="translate(-59.1 -357.52)" style="fill:#58595b"/><line x1="172.93" y1="52.39" x2="172.93" y2="74.33" style="fill:none;stroke:#58595b;stroke-miterlimit:10;stroke-width:0.5px"/><path d="M232,434.87a15.2,15.2,0,0,0-2.38-4.27l2.38.86,2.38-.86A15.2,15.2,0,0,0,232,434.87Z" transform="translate(-59.1 -357.52)" style="fill:#58595b"/><text transform="translate(0 64.58)" style="isolation:isolate;font-size:7.003109931945801px;font-family:ArialMT, Arial">Input<tspan x="15.58" y="0" style="letter-spacing:-0.01805838334382136em"> </tspan><tspan x="17.4" y="0" style="letter-spacing:-0.11086034562423153em">T</tspan><tspan x="20.9" y="0" style="letter-spacing:-0.00006972348781398209em">axID</tspan></text><text transform="translate(211.51 132.48)" style="isolation:isolate;font-size:7.003109931945801px;font-family:ArialMT, Arial">Optional:<tspan x="-13.04" y="8.4">Include keywords</tspan><tspan x="-6.03" y="16.81">in the search</tspan></text><line x1="119.23" y1="28.28" x2="143.87" y2="28.28" style="fill:none;stroke:#58595b;stroke-miterlimit:10;stroke-width:0.5px"/><path d="M206,385.8a15.2,15.2,0,0,0-4.27,2.38l.86-2.38-.86-2.37A14.93,14.93,0,0,0,206,385.8Z" transform="translate(-59.1 -357.52)" style="fill:#58595b"/><line x1="92.17" y1="104.72" x2="119.23" y2="104.72" style="fill:none;stroke:#58595b;stroke-miterlimit:10;stroke-width:0.5px"/><line x1="225.52" y1="28.28" x2="250.17" y2="28.28" style="fill:none;stroke:#58595b;stroke-miterlimit:10;stroke-width:0.5px"/><path d="M312.29,385.8a15.39,15.39,0,0,0-4.28,2.38l.86-2.38-.86-2.37A15.12,15.12,0,0,0,312.29,385.8Z" transform="translate(-59.1 -357.52)" style="fill:#58595b"/><line x1="199.2" y1="104.72" x2="225.52" y2="104.72" style="fill:none;stroke:#58595b;stroke-miterlimit:10;stroke-width:0.5px"/><line x1="36.76" y1="62.36" x2="50.73" y2="62.36" style="fill:none;stroke:#58595b;stroke-miterlimit:10;stroke-width:0.5px"/><path d="M112.84,419.88a14.93,14.93,0,0,0-4.27,2.37l.86-2.37-.86-2.38A15.2,15.2,0,0,0,112.84,419.88Z" transform="translate(-59.1 -357.52)" style="fill:#58595b"/><line x1="279.45" y1="52.73" x2="279.45" y2="74.08" style="fill:none;stroke:#58595b;stroke-miterlimit:10;stroke-width:0.5px"/><path d="M338.55,434.62a14.93,14.93,0,0,0-2.37-4.27l2.37.86,2.38-.86A15.2,15.2,0,0,0,338.55,434.62Z" transform="translate(-59.1 -357.52)" style="fill:#58595b"/></svg>